<svg width="169" height="29" viewBox="0 0 169 29" fill="none" xmlns="http://www.w3.org/2000/svg">
<path d="M10.2712 14.5C11.117 14.5 11.8219 14.1927 12.3857 13.578C12.9496 12.9634 13.3423 12.2336 13.5639 11.3885L11.8118 10.9656C11.7111 11.4087 11.5347 11.8066 11.2825 12.1595C11.0304 12.5123 10.6933 12.6883 10.2712 12.6875C9.84824 12.6875 9.51072 12.5111 9.25858 12.1583C9.00644 11.8054 8.83042 11.4079 8.73053 10.9656L6.97845 11.3885C7.19998 12.2344 7.59269 12.9646 8.15658 13.5793C8.72047 14.1939 9.42533 14.5008 10.2712 14.5ZM14.5003 21.1458C15.2857 21.1458 16.041 20.9694 16.766 20.6166C17.491 20.2638 18.1656 19.7353 18.7899 19.0313L17.4607 17.8229C17.0177 18.3063 16.5444 18.674 16.041 18.9261C15.5375 19.1783 15.0239 19.3035 14.5003 19.3019C13.9767 19.3019 13.4632 19.1763 12.9597 18.9249C12.4562 18.6736 11.983 18.3063 11.5399 17.8229L10.2107 19.0313C10.8552 19.7361 11.5351 20.265 12.2504 20.6178C12.9657 20.9706 13.7157 21.1466 14.5003 21.1458ZM18.7295 14.5C19.5753 14.5 20.2802 14.1927 20.8441 13.578C21.408 12.9634 21.8007 12.2336 22.0222 11.3885L20.2701 10.9656C20.1694 11.4087 19.9934 11.8066 19.7421 12.1595C19.4907 12.5123 19.1532 12.6883 18.7295 12.6875C18.3066 12.6875 17.969 12.5111 17.7169 12.1583C17.4648 11.8054 17.2888 11.4079 17.1889 10.9656L15.4368 11.3885C15.6583 12.2344 16.051 12.9646 16.6149 13.5793C17.1788 14.1939 17.8837 14.5008 18.7295 14.5ZM14.5003 26.5833C12.8288 26.5833 11.258 26.266 9.78783 25.6312C8.31769 24.9964 7.03887 24.1357 5.95137 23.049C4.86387 21.9615 4.00313 20.6826 3.36916 19.2125C2.73519 17.7424 2.4178 16.1715 2.41699 14.5C2.41699 12.8285 2.73438 11.2576 3.36916 9.78751C4.00394 8.31737 4.86467 7.03855 5.95137 5.95105C7.03887 4.86355 8.31769 4.00281 9.78783 3.36884C11.258 2.73487 12.8288 2.41748 14.5003 2.41667C16.1719 2.41667 17.7427 2.73406 19.2128 3.36884C20.683 4.00362 21.9618 4.86435 23.0493 5.95105C24.1368 7.03855 24.9979 8.31737 25.6327 9.78751C26.2675 11.2576 26.5845 12.8285 26.5837 14.5C26.5837 16.1715 26.2663 17.7424 25.6315 19.2125C24.9967 20.6826 24.136 21.9615 23.0493 23.049C21.9618 24.1365 20.683 24.9976 19.2128 25.6324C17.7427 26.2672 16.1719 26.5841 14.5003 26.5833ZM14.5003 24.1667C17.1989 24.1667 19.4847 23.2302 21.3576 21.3573C23.2305 19.4844 24.167 17.1986 24.167 14.5C24.167 11.8014 23.2305 9.51563 21.3576 7.64271C19.4847 5.7698 17.1989 4.83334 14.5003 4.83334C11.8017 4.83334 9.51595 5.7698 7.64303 7.64271C5.77012 9.51563 4.83366 11.8014 4.83366 14.5C4.83366 17.1986 5.77012 19.4844 7.64303 21.3573C9.51595 23.2302 11.8017 24.1667 14.5003 24.1667Z" fill="url(#paint0_linear_483_173)"/>
<path d="M38.982 12.138L38.566 12.112C37.5953 12.112 36.8153 12.45 36.226 13.126C35.654 13.7847 35.368 14.9027 35.368 16.48C35.368 18.04 35.5847 19.2273 36.018 20.042C36.4687 20.8567 37.3267 21.264 38.592 21.264C39.1813 21.264 40.4293 20.8653 42.336 20.068C42.7693 20.6747 43.0033 21.3073 43.038 21.966C42.0847 22.5553 41.1487 23.0147 40.23 23.344C39.3287 23.6733 38.6873 23.838 38.306 23.838C36.174 23.838 34.5793 23.2573 33.522 22.096C32.4647 20.9173 31.936 19.2707 31.936 17.156C31.936 12.372 34.094 9.98 38.41 9.98C39.1553 9.98 39.918 10.0753 40.698 10.266C41.4953 10.4393 42.1193 10.6647 42.57 10.942C42.518 12.6753 42.3273 13.932 41.998 14.712C41.426 14.8507 40.62 14.92 39.58 14.92L38.982 12.138ZM48.9577 23.812C47.4843 23.812 46.3403 23.5087 45.5257 22.902C44.7283 22.2953 44.3297 21.2727 44.3297 19.834C44.3297 18.4647 44.8063 17.3467 45.7597 16.48C46.3143 15.9773 47.0857 15.6827 48.0737 15.596C49.0617 15.5093 50.4223 15.466 52.1557 15.466V15.05C52.1557 13.9927 51.9823 13.2213 51.6357 12.736C51.3063 12.2333 50.717 11.982 49.8677 11.982C49.4343 11.982 49.0443 12.0687 48.6977 12.242L48.0737 14.504L46.1497 14.452C45.7163 13.7933 45.4823 12.7447 45.4477 11.306C45.7943 11.1327 46.609 10.8727 47.8917 10.526C49.1743 10.162 49.9977 9.98 50.3617 9.98C52.2337 9.98 53.5943 10.37 54.4437 11.15C55.293 11.9127 55.7177 13.1347 55.7177 14.816C55.7177 16.48 55.6397 18.6813 55.4837 21.42C56.4717 21.5067 57.2343 21.654 57.7717 21.862C57.789 22.07 57.7977 22.3213 57.7977 22.616L57.7717 23.188C56.5237 23.604 55.267 23.812 54.0017 23.812C53.6723 23.812 53.4297 23.8033 53.2737 23.786C53.0137 23.266 52.8577 22.642 52.8057 21.914H52.6757C52.3463 22.226 51.7657 22.6247 50.9337 23.11C50.119 23.578 49.4603 23.812 48.9577 23.812ZM47.6577 19.99C47.6577 20.562 47.831 20.9867 48.1777 21.264C48.5417 21.524 48.949 21.654 49.3997 21.654C49.8503 21.654 50.3877 21.4547 51.0117 21.056C51.6357 20.64 52.1383 20.2673 52.5197 19.938L52.3897 17.546C51.0203 17.6153 49.989 17.7453 49.2957 17.936C48.2037 18.1613 47.6577 18.846 47.6577 19.99ZM63.2073 4.182C63.5366 4.182 63.7446 4.19067 63.8313 4.208C63.8313 5.10933 63.7186 5.898 63.4933 6.574C63.476 7.64867 63.45 9.16533 63.4153 11.124C63.346 15.4227 63.294 18.716 63.2593 21.004L65.2873 21.238C65.2873 21.9487 65.088 22.7027 64.6893 23.5H58.2153L57.9813 22.07C59.056 21.6713 59.836 21.4113 60.3213 21.29L59.8273 6.86C59.0126 6.77333 58.328 6.64333 57.7733 6.47C57.7733 5.82867 57.834 5.20467 57.9553 4.598C58.978 4.32067 60.7286 4.182 63.2073 4.182ZM84.0573 15.986C84.0226 14.7727 83.8753 13.932 83.6153 13.464C83.3726 12.996 82.8006 12.762 81.8993 12.762C81.0153 12.762 80.1919 12.9527 79.4293 13.334C79.4293 15.5527 79.3166 18.1093 79.0913 21.004L81.1453 21.238C81.1453 21.9487 80.9459 22.7027 80.5473 23.5H74.0733L73.8393 22.07C74.7406 21.7407 75.5293 21.4807 76.2053 21.29L75.9973 15.882C75.9626 14.7553 75.8239 13.958 75.5813 13.49C75.3559 13.0047 74.9139 12.762 74.2553 12.762C73.9086 12.762 73.4059 12.8227 72.7473 12.944C72.0886 13.0653 71.5859 13.1953 71.2393 13.334C71.2393 13.386 71.1613 15.9427 71.0053 21.004L73.0333 21.238C73.0333 22.0007 72.8339 22.7547 72.4353 23.5H65.9613L65.7273 22.07C66.7499 21.6713 67.5299 21.4113 68.0673 21.29L67.7293 12.892C67.0186 12.8227 66.3339 12.6927 65.6753 12.502L65.8053 10.63C66.0999 10.5433 66.7326 10.4393 67.7033 10.318C68.6739 10.1967 69.4106 10.136 69.9133 10.136C69.9826 10.188 70.1126 10.3527 70.3033 10.63C70.4939 10.89 70.6239 11.098 70.6933 11.254C71.2826 10.9593 71.9933 10.6733 72.8253 10.396C73.6746 10.1187 74.1946 9.98 74.3853 9.98C76.2226 9.98 77.5659 10.4567 78.4153 11.41C79.0739 11.0633 79.8713 10.7427 80.8073 10.448C81.7433 10.136 82.3239 9.98 82.5493 9.98C84.1959 9.98 85.4266 10.37 86.2413 11.15C87.0559 11.93 87.4633 13.23 87.4633 15.05C87.4633 16.0553 87.3853 18.04 87.2293 21.004L89.2573 21.238C89.2573 22.0007 89.0579 22.7547 88.6593 23.5H82.2113L81.9773 22.07C82.7919 21.7407 83.5373 21.4807 84.2133 21.29C84.1959 20.8913 84.1786 20.328 84.1613 19.6C84.1266 18.404 84.0919 17.1993 84.0573 15.986ZM97.0504 12.138L96.6344 12.112C95.6637 12.112 94.8837 12.45 94.2944 13.126C93.7224 13.7847 93.4364 14.9027 93.4364 16.48C93.4364 18.04 93.653 19.2273 94.0864 20.042C94.537 20.8567 95.395 21.264 96.6604 21.264C97.2497 21.264 98.4977 20.8653 100.404 20.068C100.838 20.6747 101.072 21.3073 101.106 21.966C100.153 22.5553 99.217 23.0147 98.2984 23.344C97.397 23.6733 96.7557 23.838 96.3744 23.838C94.2424 23.838 92.6477 23.2573 91.5904 22.096C90.533 20.9173 90.0044 19.2707 90.0044 17.156C90.0044 12.372 92.1624 9.98 96.4784 9.98C97.2237 9.98 97.9864 10.0753 98.7664 10.266C99.5637 10.4393 100.188 10.6647 100.638 10.942C100.586 12.6753 100.396 13.932 100.066 14.712C99.4944 14.8507 98.6884 14.92 97.6484 14.92L97.0504 12.138ZM109.002 12.06C108.378 12.06 107.667 12.216 106.87 12.528C106.645 12.8747 106.428 13.49 106.22 14.374C106.029 15.2407 105.934 16.116 105.934 17C105.934 18.6293 106.177 19.7907 106.662 20.484C107.147 21.16 107.927 21.498 109.002 21.498C110.094 21.498 110.883 21.16 111.368 20.484C111.853 19.7907 112.096 18.612 112.096 16.948C112.096 15.2667 111.845 14.036 111.342 13.256C110.857 12.4587 110.077 12.06 109.002 12.06ZM109.002 9.98C111.03 9.98 112.659 10.604 113.89 11.852C115.138 13.0827 115.762 14.8073 115.762 17.026C115.762 19.2273 115.147 20.9087 113.916 22.07C112.685 23.2313 111.047 23.812 109.002 23.812C106.957 23.812 105.319 23.2313 104.088 22.07C102.875 20.9087 102.268 19.2273 102.268 17.026C102.268 14.8073 102.883 13.0827 104.114 11.852C105.345 10.604 106.974 9.98 109.002 9.98ZM123.798 12.788C123.764 12.7013 123.59 12.658 123.278 12.658C122.966 12.658 122.429 12.892 121.666 13.36C121.597 16.7573 121.554 19.3053 121.536 21.004L123.564 21.264C123.564 22.0093 123.365 22.7547 122.966 23.5H116.492L116.258 22.07C117.333 21.6713 118.113 21.4113 118.598 21.29L118.312 12.866C117.411 12.7967 116.657 12.6667 116.05 12.476L116.232 10.604C116.7 10.396 118.39 10.2573 121.302 10.188C121.458 10.344 121.536 10.6473 121.536 11.098C123.062 10.3527 124.024 9.98 124.422 9.98C124.838 9.98 125.341 10.084 125.93 10.292C126.537 10.4827 126.996 10.6907 127.308 10.916V11.358C127.308 12.7793 127.135 14.0967 126.788 15.31C126.494 15.4313 126.104 15.492 125.618 15.492C125.133 15.492 124.682 15.466 124.266 15.414C124.214 15.1887 124.058 14.3133 123.798 12.788ZM136.466 9.98C138.199 9.98 139.456 10.4047 140.236 11.254C141.016 12.1033 141.406 13.2907 141.406 14.816C141.406 16.3413 141.319 18.404 141.146 21.004L143.2 21.238C143.2 21.9487 143.001 22.7027 142.602 23.5H136.128L135.894 22.07C136.709 21.7407 137.463 21.4807 138.156 21.29C138.104 19.2967 138.052 17.624 138 16.272C137.948 14.9027 137.818 13.9753 137.61 13.49C137.402 13.0047 136.943 12.762 136.232 12.762C135.157 12.762 134.195 12.9527 133.346 13.334C133.329 14.0793 133.277 15.3013 133.19 17C133.121 18.6813 133.077 20.016 133.06 21.004L135.088 21.238C135.088 21.9487 134.889 22.7027 134.49 23.5H128.016L127.782 22.07C128.649 21.7407 129.429 21.4807 130.122 21.29C130.105 20.25 130.044 18.8113 129.94 16.974C129.853 15.1367 129.801 13.776 129.784 12.892C129.143 12.8227 128.458 12.6927 127.73 12.502L127.86 10.63C129.073 10.3007 130.443 10.136 131.968 10.136C132.159 10.2573 132.419 10.63 132.748 11.254C133.337 10.9593 134.057 10.6733 134.906 10.396C135.755 10.1187 136.275 9.98 136.466 9.98ZM150.745 21.264C151.335 21.264 152.531 20.8567 154.333 20.042C154.715 20.5967 155.001 21.238 155.191 21.966C154.238 22.5553 153.302 23.0147 152.383 23.344C151.482 23.656 150.841 23.812 150.459 23.812C148.362 23.812 146.767 23.2313 145.675 22.07C144.601 20.9087 144.063 19.262 144.063 17.13C144.063 14.9807 144.601 13.256 145.675 11.956C146.75 10.6387 148.345 9.98 150.459 9.98C152.141 9.98 153.423 10.526 154.307 11.618C155.191 12.71 155.633 14.1313 155.633 15.882C155.633 16.246 155.425 16.662 155.009 17.13L147.521 17C147.556 18.3867 147.816 19.444 148.301 20.172C148.787 20.9 149.601 21.264 150.745 21.264ZM150.225 12.138C149.567 12.138 148.951 12.268 148.379 12.528C147.981 13.36 147.729 14.1313 147.625 14.842C148.977 14.79 150.511 14.7553 152.227 14.738C152.141 13.0047 151.473 12.138 150.225 12.138ZM164.804 12.788C164.769 12.7013 164.596 12.658 164.284 12.658C163.972 12.658 163.435 12.892 162.672 13.36C162.603 16.7573 162.559 19.3053 162.542 21.004L164.57 21.264C164.57 22.0093 164.371 22.7547 163.972 23.5H157.498L157.264 22.07C158.339 21.6713 159.119 21.4113 159.604 21.29L159.318 12.866C158.417 12.7967 157.663 12.6667 157.056 12.476L157.238 10.604C157.706 10.396 159.396 10.2573 162.308 10.188C162.464 10.344 162.542 10.6473 162.542 11.098C164.067 10.3527 165.029 9.98 165.428 9.98C165.844 9.98 166.347 10.084 166.936 10.292C167.543 10.4827 168.002 10.6907 168.314 10.916V11.358C168.314 12.7793 168.141 14.0967 167.794 15.31C167.499 15.4313 167.109 15.492 166.624 15.492C166.139 15.492 165.688 15.466 165.272 15.414C165.22 15.1887 165.064 14.3133 164.804 12.788Z" fill="url(#paint1_linear_483_173)"/>
<defs>
<linearGradient id="paint0_linear_483_173" x1="27.7395" y1="14.7685" x2="3.15255" y2="14.7315" gradientUnits="userSpaceOnUse">
<stop offset="0.026616" stop-color="#2B7ABB"/>
<stop offset="0.485771" stop-color="#194DDD"/>
<stop offset="1" stop-color="#573AA6"/>
</linearGradient>
<linearGradient id="paint1_linear_483_173" x1="175.6" y1="14.8111" x2="35.2077" y2="13.7685" gradientUnits="userSpaceOnUse">
<stop offset="0.026616" stop-color="#2B7ABB"/>
<stop offset="0.485771" stop-color="#194DDD"/>
<stop offset="1" stop-color="#573AA6"/>
</linearGradient>
</defs>
</svg>
