<svg   viewBox="0 0 1314 416" fill="none" xmlns="http://www.w3.org/2000/svg">
<mask id="mask0_285_1270" style="mask-type:alpha" maskUnits="userSpaceOnUse" x="0" y="0" width="1314" height="416">
<rect width="1314" height="416" rx="8" fill="#FDFDFD"/>
<rect width="1314" height="416" rx="8" stroke="black"/>
</mask>
<g mask="url(#mask0_285_1270)">
<circle cx="656.5" cy="228.5" r="96.5" fill="#F98150"/>
<path d="M134.5 347C72.5 292.6 -22.6667 314.667 -62.5 332.5L-44 651H1360L1348 539V332.5C1326.67 325.333 1274.7 311 1237.5 311C1191 311 982.5 421.5 906.5 421.5C830.5 421.5 737.5 311 604 311C470.5 311 212 415 134.5 347Z" fill="#2780D2"/>
<path d="M254 291.246C46 287.246 19.3333 333.079 -66 356.746V796.746L1404.5 780.746V356.746C1404.5 323.745 1372.5 328.746 1288.5 356.746C1204.5 384.746 1091.5 355.745 998 328.746C904.5 301.746 727.5 369.746 595.5 368.746C463.5 367.745 462 295.246 254 291.246Z" fill="#00C4DF"/>
<path d="M165.5 357.5C62.3 357.5 -32.1667 404.5 -66.5 428L-46.5 504L1334.5 553.5C1349.17 497.5 1373.2 390.8 1352 412C1325.5 438.5 1068 369.5 921.5 369.5C775 369.5 652 450.5 592 450.5C532 450.5 294.5 357.5 165.5 357.5Z" fill="#2780D2"/>
<path d="M279.001 158.02H-1.99861C-9.99861 140.187 -10.9982 100.52 26.0014 76.5204C63.001 52.5205 119.668 58.1871 140.501 63.0205C143.668 48.3538 158.001 21.4205 190.001 31.0205C222.001 40.6205 226.335 65.3537 224.501 76.5204C229.001 71.187 246.201 63.7204 279.001 76.5204C311.801 89.3204 292.668 136.187 279.001 158.02Z" fill="white"/>
<path d="M20.8337 101.167C20.2397 101.241 20.8085 101.019 21.1856 100.296C23.5914 95.685 27.8946 92.5403 32.1485 89.8333C38.1306 86.0265 44.0649 83.7366 50.8337 81.7592C56.848 80.0022 63.5973 79.2198 69.8522 78.8518C72.0598 78.722 74.1662 79.1254 76.3522 79.1666C78.5669 79.2084 77.4975 79.7246 76.1671 80.8333" stroke="black" stroke-linecap="round"/>
<path d="M30.5 102.5C30.5 102.874 31.3616 101.997 31.5741 101.833C35.3745 98.8966 39.8488 96.5003 44.2778 94.6851C49.1633 92.6828 54.3798 91.4182 59.6482 91.1481C63.0748 90.9723 66.4678 90.1666 69.9074 90.1666C71.7177 90.1666 74.6901 89.2756 71.8333 90.4999" stroke="black" stroke-linecap="round"/>
<path d="M196.833 41.1667C196.764 41.7194 196.7 41.479 197.5 41.5001C201.545 41.6065 206.386 48.1234 208.092 51.3519C208.612 52.3352 211.81 57.6554 209.5 56.5001" stroke="black" stroke-linecap="round"/>
<path d="M201.167 48.5C203.115 48.6948 205.486 52.8478 204.167 54.1667" stroke="black" stroke-linecap="round"/>
<path d="M252.5 83.8334C252.854 80.65 265.705 86.5481 267.296 88.6852C268.234 89.9441 272.883 96.9568 270.167 97.5001" stroke="black" stroke-linecap="round"/>
<path d="M256.5 89.5C257.285 89.5 258.101 89.4983 258.833 89.8333C259.676 90.2188 263.052 93.8333 262.167 93.8333" stroke="black" stroke-linecap="round"/>
<path d="M193.167 105.167C194.57 103.763 195.928 103.387 197.945 103.019C203.779 101.952 209.453 101.484 215.186 103.204C216.052 103.464 226.583 108.563 222.834 109.5" stroke="black" stroke-linecap="round"/>
<path d="M203.5 106.833C206.243 106.529 216.167 107.071 216.167 110.833" stroke="black" stroke-linecap="round"/>
<path d="M223.167 101.833C222.793 101.833 223.921 102.033 224.167 102.167C225.877 103.095 226.223 105.505 226.5 107.167" stroke="black" stroke-linecap="round"/>
<path d="M124.166 86.1666C123.738 86.1666 125.342 85.709 125.537 85.6296C129.349 84.0701 133.131 82.8333 137.277 82.8333C138.304 82.8333 142.836 82.1605 142.166 83.4999" stroke="black" stroke-linecap="round"/>
<path d="M133.5 88.4999C133.711 86.8159 138.878 88.3616 139.5 88.4999" stroke="black" stroke-linecap="round"/>
<path d="M156.5 52.8333C156.562 52.274 157.121 51.6192 157.5 51.2407C160.091 48.6498 164.198 46.3019 167.685 45.1666C169.573 44.5521 171.484 44.2756 173.444 43.9999C174.413 43.8638 176.562 43.1562 174.5 43.4999" stroke="black" stroke-linecap="round"/>
<path d="M163.5 52.5001C161.045 52.5001 168.473 51.1591 170.833 51.8334" stroke="black" stroke-linecap="round"/>
<path d="M1362.52 270.02H1081.52C1073.52 252.187 1072.52 212.52 1109.52 188.52C1146.52 164.521 1203.19 170.187 1224.02 175.02C1227.19 160.354 1241.52 133.42 1273.52 143.02C1305.52 152.62 1309.85 177.354 1308.02 188.52C1312.52 183.187 1329.72 175.72 1362.52 188.52C1395.32 201.32 1376.19 248.187 1362.52 270.02Z" fill="white"/>
<path d="M1104.35 213.167C1103.76 213.241 1104.33 213.019 1104.7 212.296C1107.11 207.685 1111.41 204.54 1115.67 201.833C1121.65 198.026 1127.58 195.737 1134.35 193.759C1140.37 192.002 1147.11 191.22 1153.37 190.852C1155.58 190.722 1157.68 191.125 1159.87 191.167C1162.08 191.208 1161.02 191.725 1159.68 192.833" stroke="black" stroke-linecap="round"/>
<path d="M1114.02 214.5C1114.02 214.874 1114.88 213.997 1115.09 213.833C1118.89 210.897 1123.37 208.5 1127.8 206.685C1132.68 204.683 1137.9 203.418 1143.17 203.148C1146.59 202.972 1149.99 202.167 1153.42 202.167C1155.24 202.167 1158.21 201.276 1155.35 202.5" stroke="black" stroke-linecap="round"/>
<path d="M1280.35 153.167C1280.28 153.719 1280.22 153.479 1281.02 153.5C1285.06 153.607 1289.9 160.123 1291.61 163.352C1292.13 164.335 1295.33 169.655 1293.02 168.5" stroke="black" stroke-linecap="round"/>
<path d="M1284.68 160.5C1286.63 160.695 1289 164.848 1287.68 166.167" stroke="black" stroke-linecap="round"/>
<path d="M1276.68 217.167C1278.09 215.763 1279.45 215.387 1281.46 215.019C1287.3 213.952 1292.97 213.484 1298.7 215.204C1299.57 215.464 1310.1 220.563 1306.35 221.5" stroke="black" stroke-linecap="round"/>
<path d="M1287.02 218.833C1289.76 218.529 1299.68 219.071 1299.68 222.833" stroke="black" stroke-linecap="round"/>
<path d="M1306.68 213.833C1306.31 213.833 1307.44 214.033 1307.68 214.167C1309.39 215.095 1309.74 217.505 1310.02 219.167" stroke="black" stroke-linecap="round"/>
<path d="M1207.68 198.167C1207.26 198.167 1208.86 197.709 1209.05 197.63C1212.87 196.07 1216.65 194.833 1220.79 194.833C1221.82 194.833 1226.35 194.16 1225.68 195.5" stroke="black" stroke-linecap="round"/>
<path d="M1217.02 200.5C1217.23 198.816 1222.4 200.362 1223.02 200.5" stroke="black" stroke-linecap="round"/>
<path d="M1240.02 164.833C1240.08 164.274 1240.64 163.619 1241.02 163.241C1243.61 160.65 1247.72 158.302 1251.2 157.167C1253.09 156.552 1255 156.276 1256.96 156C1257.93 155.864 1260.08 155.156 1258.02 155.5" stroke="black" stroke-linecap="round"/>
<path d="M1247.02 164.5C1244.56 164.5 1251.99 163.159 1254.35 163.833" stroke="black" stroke-linecap="round"/>
</g>
</svg>
